<?xml version="1.0" encoding="utf-8"?>
<!-- Generator: Adobe Illustrator 23.0.3, SVG Export Plug-In . SVG Version: 6.00 Build 0)  -->
<svg version="1.1" id="Camada_1" xmlns="http://www.w3.org/2000/svg" xmlns:xlink="http://www.w3.org/1999/xlink" x="0px" y="0px"
	 viewBox="0 0 42.1 57.9" style="enable-background:new 0 0 42.1 57.9;" xml:space="preserve">
<style type="text/css">
	.st0{display:none;}
	.st1{display:inline;fill:#FFFFFF;stroke:#000000;stroke-miterlimit:10;}
	.st2{display:inline;}
	.st3{fill:#00542D;}
	.st4{enable-background:new    ;}
	.st5{fill:#007852;}
	.st6{fill:none;}
	.st7{fill:#0F6B38;}
	.st8{fill:#73B844;}
</style>
<g id="Layer_1" class="st0">
	<path class="st1" d="M-205.8,122.9"/>
	<g id="Layer_2" class="st2">
	</g>
</g>
<g id="Layer_3">
	<path class="st3" d="M36.3,14.7c0,0,0,0.1,0,0.1c0,5.5-6.1,5.9-6.1,5.9c0-0.2,0-0.4,0-0.5c0-5.2-4.1-4.5-5-4.2c-0.1,0-0.2,0-0.2,0
		c-0.5-2.5-2.8-1.8-2.8-1.8c0-0.1,0-0.1,0.1-0.2c0.3-1,1-1.8,1.8-2.4c1.1-0.8,2.4-1.3,3.3-1.5h0c0,0,0,0,0,0
		c0.6-0.2,1.1-0.2,1.1-0.2c-0.2,0-0.4-0.1-0.6-0.1c-1.9-0.2-3.5,0.3-4.7,0.9c-2,1-3,2.5-3,2.5c-0.2-1.5-0.3-2.7-0.6-3.7
		c-0.9-4.1-2-4.6-2.1-4.7c0.4,0.6,0.6,2.7,0.8,4.7c0.1,2.3,0.1,4.6,0.1,4.6c-1-1-2-1.7-2.9-2.2c-0.2-0.1-0.5-0.2-0.7-0.3
		c-2.7-1.1-4.8-0.3-4.8-0.3c1.3,0.1,2.3,0.4,3.2,0.9c1.6,0.9,2.5,2.1,2.9,2.9c0.2,0.4,0.4,0.7,0.4,0.7c-0.2,0-0.3-0.1-0.4-0.1
		c-3-0.3-3.1,2.8-3.1,2.8c-3.4-1.7-4.2,2-4.3,2.1c-0.2,0-0.3-0.1-0.5-0.1c-2.5-0.8-4.3-3.1-4.3-5.9c0-2.6,1.6-4.8,3.9-5.7
		C7.6,8.5,7.5,8,7.5,7.5c0-2.6,2.1-4.8,4.8-4.8c0.7,0,1.3,0.1,1.9,0.4C14.8,1.3,16.6,0,18.6,0c2.6,0,4.7,2,4.7,4.6
		c0.9-1,2.1-1.6,3.5-1.6c2.6,0,4.8,2.1,4.8,4.8c0,0.4-0.1,0.8-0.2,1.2c2.7,0.4,4.8,2.8,4.8,5.6C36.3,14.6,36.3,14.6,36.3,14.7
		L36.3,14.7L36.3,14.7z"/>
</g>
<g class="st4">
	<path class="st5" d="M3.8,55.4v0.8c0,0.4-0.1,0.7-0.2,0.9c-0.1,0.3-0.3,0.5-0.6,0.6C2.8,57.9,2.5,58,2.2,58c-0.3,0-0.6-0.1-0.9-0.2
		c-0.3-0.1-0.4-0.3-0.6-0.6c-0.1-0.3-0.2-0.5-0.2-0.9v-1.4c0-0.4,0.1-0.7,0.2-0.9s0.3-0.5,0.6-0.6c0.3-0.1,0.5-0.2,0.9-0.2
		c0.3,0,0.5,0.1,0.7,0.2c0.2,0.1,0.4,0.3,0.6,0.5c0.2,0.2,0.3,0.5,0.3,0.7H3.1c0-0.2-0.1-0.3-0.2-0.4S2.7,54,2.5,53.9
		c-0.1-0.1-0.3-0.1-0.4-0.1c-0.2,0-0.4,0-0.5,0.1c-0.1,0.1-0.3,0.2-0.3,0.4s-0.1,0.4-0.1,0.6v1.4c0,0.2,0,0.4,0.1,0.5
		s0.2,0.3,0.3,0.4c0.1,0.1,0.3,0.1,0.5,0.1c0.2,0,0.4,0,0.5-0.1C2.8,57.1,2.9,57,3,56.8s0.1-0.4,0.1-0.6V56h-1v-0.6H3.8z"/>
	<path class="st5" d="M4.9,53.2h0.7v4.7H4.9V53.2z M5.2,55.3h1.6c0.1,0,0.2,0,0.3-0.1s0.2-0.1,0.2-0.3c0.1-0.1,0.1-0.2,0.1-0.4
		c0-0.1,0-0.3-0.1-0.4c-0.1-0.1-0.1-0.2-0.2-0.3c-0.1-0.1-0.2-0.1-0.3-0.1H5.2v-0.6h1.6c0.3,0,0.5,0.1,0.7,0.2
		c0.2,0.1,0.4,0.3,0.5,0.5c0.1,0.2,0.2,0.4,0.2,0.7c0,0.3-0.1,0.5-0.2,0.7c-0.1,0.2-0.3,0.4-0.5,0.5c-0.2,0.1-0.4,0.2-0.7,0.2H5.2
		V55.3z M6.4,55.8l0.7-0.1l1.2,2.3H7.5L6.4,55.8z"/>
	<path class="st5" d="M9.2,53.2h0.7v4.7H9.2V53.2z M9.5,53.2h2.7v0.6H9.5V53.2z M9.5,55.3h2.3v0.6H9.5V55.3z M9.5,57.3h2.7v0.6H9.5
		V57.3z"/>
	<path class="st5" d="M13.2,53.2h0.7v4.7h-0.7V53.2z M13.5,53.2h2.7v0.6h-2.7V53.2z M13.5,55.3h2.3v0.6h-2.3V55.3z M13.5,57.3h2.7
		v0.6h-2.7V57.3z"/>
	<path class="st5" d="M17.1,53.2h0.6l2.3,3.6L20,57v-3.7h0.7v4.7H20l-2.3-3.6l0.1-0.1v3.7h-0.7V53.2z"/>
	<path class="st5" d="M22.3,53.2h3.3v0.6h-3.3V53.2z M23.6,53.6h0.7v4.3h-0.7V53.6z"/>
	<path class="st5" d="M26.1,53.2h0.7v4.7h-0.7V53.2z M26.4,55.3H28c0.1,0,0.2,0,0.3-0.1s0.2-0.1,0.2-0.3c0.1-0.1,0.1-0.2,0.1-0.4
		c0-0.1,0-0.3-0.1-0.4c-0.1-0.1-0.1-0.2-0.2-0.3c-0.1-0.1-0.2-0.1-0.3-0.1h-1.6v-0.6H28c0.3,0,0.5,0.1,0.7,0.2
		c0.2,0.1,0.4,0.3,0.5,0.5c0.1,0.2,0.2,0.4,0.2,0.7c0,0.3-0.1,0.5-0.2,0.7c-0.1,0.2-0.3,0.4-0.5,0.5c-0.2,0.1-0.4,0.2-0.7,0.2h-1.6
		V55.3z M27.7,55.8l0.7-0.1l1.2,2.3h-0.8L27.7,55.8z"/>
	<path class="st5" d="M31.6,53.2h0.6l1.7,4.7h-0.7l-1.3-3.8l-1.3,3.8h-0.7L31.6,53.2z M30.7,56.3h2.5v0.6h-2.5V56.3z"/>
	<path class="st5" d="M34.6,53.2h0.7v4.7h-0.7V53.2z M35.1,57.3h1.1c0.3,0,0.6-0.1,0.8-0.3c0.2-0.2,0.3-0.4,0.3-0.8v-1.4
		c0-0.3-0.1-0.6-0.3-0.8c-0.2-0.2-0.5-0.3-0.8-0.3h-1.1v-0.6h1c0.4,0,0.7,0.1,1,0.2s0.5,0.3,0.6,0.6c0.1,0.3,0.2,0.6,0.2,0.9v1.3
		c0,0.4-0.1,0.7-0.2,0.9c-0.1,0.3-0.3,0.4-0.6,0.6c-0.3,0.1-0.6,0.2-1,0.2h-1V57.3z"/>
	<path class="st5" d="M39,53.2h0.7v4.7H39V53.2z M39.3,53.2H42v0.6h-2.7V53.2z M39.3,55.3h2.3v0.6h-2.3V55.3z M39.3,57.3H42v0.6
		h-2.7V57.3z"/>
</g>
<line class="st6" x1="-446.2" y1="-79.6" x2="-446.2" y2="-80.2"/>
<path class="st5" d="M36.5,32C36.5,32,36.5,32,36.5,32C36.5,32,36.5,32,36.5,32c0,0.1-0.2,0.3-0.3,0.7v0l0,0l-6.7,11.3
	c-0.5,0.9-1.1,1.8-1.9,2.5c-0.6,0.6-1.2,1.1-1.9,1.5c-0.3,0.2-0.6,0.3-0.9,0.5c-0.1,0.1-0.3,0.1-0.4,0.2c-0.3,0.1-0.7,0.3-1,0.4
	c-1,0.3-2.1,0.5-3.3,0.5c-1.1,0-2.2-0.2-3.2-0.5c-0.3-0.1-0.7-0.2-1-0.4c-0.3-0.1-0.6-0.3-0.9-0.4c-0.3-0.2-0.6-0.3-0.9-0.5
	c-2.8-1.9-4.7-5.1-4.7-8.7V22.5c0-0.8,0.3-1.5,0.7-2c0,0,0.1-0.1,0.1-0.1c0.1-0.1,0.2-0.2,0.4-0.3c0.1,0,0.1-0.1,0.2-0.1
	c0.1,0,0.2-0.1,0.3-0.1c0.1,0,0.2,0,0.3,0s0.2,0,0.3,0c0.1,0,0.2,0,0.3,0.1c0.1,0,0.1,0.1,0.2,0.1c0.1,0.1,0.3,0.2,0.4,0.3
	c0,0,0.1,0.1,0.1,0.1c0.4,0.5,0.7,1.2,0.7,2V32h0.4V19.6c0-0.8,0.3-1.5,0.7-2c0,0,0.1-0.1,0.1-0.1c0.1-0.1,0.2-0.2,0.4-0.3
	c0.1,0,0.1-0.1,0.2-0.1c0.1,0,0.2-0.1,0.3-0.1c0.1,0,0.2,0,0.3,0s0.2,0,0.3,0c0.1,0,0.2,0,0.3,0.1c0.1,0,0.1,0.1,0.2,0.1
	c0.1,0.1,0.3,0.2,0.4,0.3c0,0,0.1,0.1,0.1,0.1c0.4,0.5,0.7,1.2,0.7,2v14c0,0,0,0.1,0,0.3c0,0.1,0,0.1,0,0.2c0,0.6-0.3,1.7-1.4,2.8
	c-0.1,0.1-0.1,0.1-0.2,0.2c-0.1,0.1-0.1,0.1-0.2,0.2c-0.1,0.1-0.3,0.2-0.5,0.4c-0.1,0.1-0.2,0.1-0.3,0.2c-0.3,0.2-0.7,0.4-1.1,0.6
	c-0.2,0.1-0.4,0.2-0.6,0.3h0c-0.2,0.1-0.5,0.2-0.7,0.3c0,0,0,0,0,0c0,0,0,0,0,0c0,0,0,0,0.1,0c0,0,0,0,0.1,0c0,0,0,0,0.1,0
	c0,0,0,0,0.1,0c0.2,0,0.6,0,1.1,0c0.2,0,0.3,0,0.5,0c0,0,0.1,0,0.1,0c0.1,0,0.2,0,0.2,0c0.1,0,0.2,0,0.2,0c0.1,0,0.3-0.1,0.4-0.1
	c0.1,0,0.2-0.1,0.4-0.1c0.1,0,0.2-0.1,0.3-0.1c0.3-0.2,0.6-0.4,0.9-0.6c0.2-0.2,0.4-0.5,0.6-0.8v0.1c0,0.5-0.1,2.8-1.9,4.6
	c-0.5,0.5-1.1,0.9-1.9,1.3c-0.1,0.1-0.3,0.1-0.4,0.2c-0.2,0.1-0.5,0.2-0.7,0.2c0,0,0,0,0,0c0,0,0,0,0.1,0c0,0,0,0,0,0c0,0,0,0,0.1,0
	c0,0,0,0,0,0h0c0,0,0.1,0,0.1,0c0.6,0,1.9,0,3.2-0.6c0,0,0,0,0,0c0.2-0.1,0.4-0.2,0.5-0.3c0.3-0.2,0.5-0.4,0.8-0.6
	c0.9-0.9,1.6-2.2,1.9-4.4c0,0.1,0.5,1.1,1.4,2c0.3,0.3,0.7,0.6,1.2,0.9c0.1,0.1,0.3,0.2,0.5,0.3h0c0.2,0.1,0.5,0.2,0.8,0.3
	c0,0,0,0,0,0c0.2,0.1,0.4,0.1,0.6,0.1c0,0,0,0,0,0c0.5,0.1,0.9,0.1,1.5,0.1h0c0.1,0,0.1,0,0.2,0c0,0,0,0,0,0h0c0,0,0,0-0.1,0h0
	c0,0,0,0-0.1,0c-0.1,0-0.1,0-0.2-0.1c0,0-0.1,0-0.1-0.1c-0.1,0-0.2-0.1-0.3-0.1c-0.1,0-0.1-0.1-0.2-0.1c-0.1-0.1-0.3-0.1-0.4-0.2
	c-1.5-0.8-3.6-2.3-3.8-4.7v0c0,0,0-0.1,0-0.1c0,0,0,0,0,0c0,0,0,0,0,0c0,0,0,0,0,0c0,0,0,0,0,0c0,0,0,0,0,0c0,0,0,0,0.1,0.1
	c0,0,0,0,0.1,0.1c0.1,0.1,0.3,0.3,0.5,0.5c0.1,0,0.1,0.1,0.2,0.1c0.2,0.1,0.4,0.3,0.6,0.4c0.1,0.1,0.3,0.2,0.4,0.2
	c0.1,0,0.1,0.1,0.2,0.1c0.6,0.2,1.2,0.4,1.9,0.2c0.1,0,0.1,0,0.2,0c0.1,0,0.1,0,0.2,0c0.1,0,0.2-0.1,0.3-0.1c0,0,0.1,0,0.1,0
	c0,0,0,0,0,0c0,0,0.1,0,0.1,0c0,0,0,0,0,0c0,0,0,0,0,0c0,0-0.1,0-0.2,0c-0.1,0-0.1,0-0.2,0c0,0-0.1,0-0.1,0c0,0,0,0,0,0c0,0,0,0,0,0
	c0,0-0.1,0-0.1,0c0,0,0,0,0,0c-0.1,0-0.1,0-0.2,0c-0.1,0-0.3-0.1-0.4-0.1c-0.1,0-0.1,0-0.2-0.1c-0.3-0.1-0.5-0.2-0.8-0.3h0
	c-0.1,0-0.2-0.1-0.3-0.1c-0.3-0.2-0.6-0.4-0.9-0.7c-0.7-0.8-1.3-2-1.4-3.8c0-0.1,0-0.2,0-0.3V17.9c0-0.9,0.3-1.7,0.8-2.1
	c0.3-0.3,0.7-0.4,1-0.4c0.4,0,0.7,0.2,1,0.4c0.5,0.5,0.8,1.2,0.8,2.1v14l0.6,0V19.6c0-0.9,0.3-1.7,0.8-2.1c0.1-0.1,0.2-0.2,0.3-0.2
	c0.1,0,0.1-0.1,0.2-0.1c0.1,0,0.2-0.1,0.3-0.1c0.1,0,0.2,0,0.3,0c0.1,0,0.2,0,0.3,0c0.1,0,0.2,0,0.3,0.1c0.1,0,0.1,0.1,0.2,0.1
	c0.1,0.1,0.2,0.1,0.3,0.2c0.5,0.5,0.8,1.2,0.8,2.1v13.1l0,2.3v0.2l0,0.2l0,0.7v0.1l0,0.9l0,0l0-0.9v-0.1l1.2-1.5l3.9-4.9
	c0,0,0.1-0.1,0.4-0.1c0.1,0,0.2-0.1,0.4-0.1c0.3,0,0.6-0.1,0.9,0c0,0,0.1,0,0.1,0c0.1,0,0.2,0.1,0.3,0.1h0c0.1,0.1,0.1,0.1,0.2,0.2
	c0.1,0.1,0.1,0.1,0.2,0.2c0.2,0.2,0.3,0.5,0.4,0.9C36.5,31.3,36.5,31.6,36.5,32z"/>
<path class="st7" d="M-80.2-129.1c0.3,0,0.5,0,0.8,0.1C-79.7-129-79.9-129.1-80.2-129.1c-0.3,0-0.5,0-0.8,0.1
	C-80.7-129-80.4-129.1-80.2-129.1z"/>
<path class="st8" d="M-446-83.2L-446-83.2z"/>
<image style="overflow:visible;" width="900" height="600" xlink:href="../../../Downloads/11163.png"  transform="matrix(1 0 0 1 319.8345 -141.2621)">
</image>
<image style="overflow:visible;" width="1600" height="900" xlink:href="../../../Downloads/forest-hd-wallpaper4.jpg"  transform="matrix(1 0 0 1 328.8321 -1041.2622)">
</image>
</svg>
